<svg width="330" height="137" viewBox="0 0 330 137" fill="none" xmlns="http://www.w3.org/2000/svg">
<g clip-path="url(#clip0_1080_729)">
<path d="M45.2838 118.083C35.9072 118.083 26.8941 116.628 18.5351 114.009L56.5502 136.054C58.8035 137.364 61.6383 137.364 63.9643 136.054L116.807 105.497C119.061 104.187 120.515 101.713 120.515 99.094V69.0457C111.356 97.3479 81.1183 118.083 45.2838 118.083Z" fill="url(#paint0_linear_1080_729)"/>
<path d="M116.807 31.5767L63.9643 1.01912C61.711 -0.290494 58.8762 -0.290494 56.5502 1.01912L3.70702 31.5767C1.38105 32.8864 0 35.2873 0 37.9793V41.3261V99.0945C0 101.714 1.38105 104.187 3.70702 105.497L18.5351 114.082C26.8941 116.702 35.9072 118.157 45.2838 118.157C81.1183 118.157 111.283 97.4211 120.515 69.119V37.9793C120.515 35.2873 119.133 32.8864 116.807 31.5767ZM60.9114 80.6144L61.0568 80.4689L61.4929 81.633L60.9114 80.6144Z" fill="url(#paint1_linear_1080_729)"/>
<path d="M46.8829 20.5909L19.262 36.8155H50.5172V20.0816H48.9181C48.1913 20.0088 47.4644 20.2271 46.8829 20.5909Z" fill="url(#paint2_linear_1080_729)"/>
<path d="M52.8442 23.9368C52.7713 24.0823 52.6254 24.2278 52.5525 24.3733C52.6254 24.1551 52.6983 24.0096 52.8442 23.9368Z" fill="url(#paint3_linear_1080_729)"/>
<path d="M66.0722 55.1492H59.2396V71.0829H64.9819C64.9819 71.0829 73.9223 71.5922 82.354 66.4992C85.5522 64.6075 88.2416 61.8428 90.5676 58.3505C92.8936 54.8582 94.0565 50.5656 94.0565 45.6182C94.0565 42.7079 93.6931 40.0887 93.0389 37.615C84.898 56.6044 68.2528 55.222 66.0722 55.1492Z" fill="url(#paint4_linear_1080_729)"/>
<path d="M86.5701 26.8471C82.2816 22.9182 76.2486 20.6628 68.3984 20.0807H68.035C67.9623 20.0807 67.8896 20.0807 67.8896 20.0807H50.5175H49.2818C48.3369 20.0807 47.392 20.3717 46.5924 20.8083L19.3349 36.8147H50.5902H66.4359C69.0526 37.1057 71.0878 37.8332 72.4689 38.9973C74.2133 40.5252 75.0856 42.8534 75.0856 45.9092C75.0856 48.9649 74.286 51.2204 72.6869 52.821C71.0878 54.3489 68.9072 55.1492 66.2178 55.1492C68.3984 55.2947 85.0436 56.6044 93.1846 37.6877C91.9489 33.3951 89.7683 29.7573 86.5701 26.8471Z" fill="url(#paint5_linear_1080_729)"/>
<path d="M50.0084 112.19L67.3078 101.64C68.7616 100.767 69.7065 99.1668 69.7065 97.4206L69.8519 83.5969L49.9357 96.111L50.0084 112.19Z" fill="url(#paint6_linear_1080_729)"/>
<path d="M40.5592 55.3675L40.0504 71.0101H62.2925L64.1823 55.1492L40.5592 55.3675Z" fill="url(#paint7_linear_1080_729)"/>
<path d="M49.863 71.3011C49.863 71.3011 49.863 67.2268 49.863 65.1168C49.863 63.0069 50.2992 56.0223 56.1868 55.3675C56.9863 55.2947 58.6581 55.222 58.6581 55.222H40.9953C37.579 55.222 34.8896 57.9867 34.8896 61.3335V104.26L50.0084 112.045C50.0084 112.045 49.7177 71.3011 49.863 71.3011Z" fill="url(#paint8_linear_1080_729)"/>
<path d="M161.163 36C167.332 36 172.592 38.1661 176.963 42.4923C181.327 46.8246 183.513 52.0391 183.513 58.1541C183.513 64.2631 181.327 69.4837 176.963 73.816C172.592 78.1482 167.332 80.3083 161.163 80.3083H145.657V101.507H134V47.5547V36H161.163ZM161.163 68.7536C164.115 68.7536 166.638 67.7192 168.725 65.6504C170.812 63.5816 171.856 61.0808 171.856 58.1541C171.856 55.2274 170.812 52.7267 168.725 50.6579C166.638 48.5891 164.115 47.5547 161.163 47.5547H145.657V79.067C145.976 76.2012 147.247 73.7673 149.463 71.7655C151.679 69.7575 154.263 68.7597 157.216 68.7597H161.163V68.7536Z" fill="white"/>
<path d="M201.424 101.404V101.501H189.774V36C192.984 36 195.728 37.1317 198.012 39.3891C200.289 41.6465 201.431 44.3725 201.431 47.5547V89.8551H210.872V92.0516C210.872 94.6619 209.957 96.8706 208.128 98.69C206.292 100.497 204.058 101.404 201.424 101.404Z" fill="white"/>
<path d="M238.415 101.501C232.571 101.501 227.562 99.4323 223.388 95.2947C219.214 91.1572 217.127 86.1921 217.127 80.3996C217.127 74.607 219.214 69.6419 223.388 65.5044C227.562 61.3668 232.571 59.298 238.415 59.298C241.754 59.298 244.964 60.0647 248.046 61.592V59.298C251.256 59.298 254 60.4298 256.284 62.6872C258.561 64.9446 259.703 67.6705 259.703 70.8528V101.501H248.046V99.2071C244.964 100.74 241.754 101.501 238.415 101.501ZM245.21 73.67C243.313 71.7959 241.054 70.8528 238.421 70.8528C235.787 70.8528 233.522 71.7898 231.632 73.67C229.735 75.5501 228.79 77.7892 228.79 80.3996C228.79 83.0099 229.735 85.2551 231.632 87.1292C233.522 89.0093 235.787 89.9463 238.421 89.9463C241.054 89.9463 243.319 89.0093 245.21 87.1292C247.101 85.2551 248.052 83.0099 248.052 80.3996C248.046 77.7892 247.101 75.544 245.21 73.67Z" fill="white"/>
<path d="M293.421 59.2981C293.421 62.1639 292.506 64.6464 290.677 66.7456C288.848 68.8448 286.552 70.153 283.79 70.6581V80.3996C283.79 83.0099 284.735 85.2551 286.632 87.1292C288.523 89.0093 290.788 89.9463 293.421 89.9463V101.501C287.577 101.501 282.587 99.4505 278.443 95.3434C274.3 91.2363 272.231 86.2591 272.231 80.3996V70.8528H261.735C261.735 67.9261 262.747 65.3644 264.767 63.1679C266.786 60.9713 269.279 59.7179 272.231 59.3954V57.7708C272.231 54.9719 273.355 52.5685 275.601 50.5605C277.848 48.5526 280.58 47.5547 283.79 47.5547V59.2981H293.421Z" fill="white"/>
<path d="M324.997 77.4424C323.377 76.2985 319.859 74.0472 314.421 73.6334C313.795 73.5848 313.285 73.7734 311.462 73.3657C310.928 73.244 310.142 73.098 309.792 72.1549C309.688 71.875 309.67 71.6194 309.682 71.376C309.682 71.3578 309.67 71.3517 309.67 71.3335C309.67 71.3091 309.688 71.2848 309.688 71.2604C309.712 71.0536 309.762 70.8649 309.841 70.6885C310.222 69.7454 311.351 68.9361 312.892 68.8327C314.476 68.7292 315.74 69.4472 316.293 70.5181C316.557 71.157 317.115 72.1488 317.834 72.1488H327.643C327.643 68.7171 326.206 65.766 323.328 63.3017C320.449 60.8375 316.987 59.5779 312.935 59.511C308.884 59.5779 305.434 60.8375 302.592 63.3017C299.75 65.766 298.326 68.711 298.326 72.1488C298.326 75.5866 299.75 78.5316 302.592 80.9958C305.434 83.4601 308.884 84.6892 312.935 84.6892C314.568 84.6892 315.906 84.9509 316.956 85.4681C317.999 85.9852 318.521 86.7032 318.521 87.6038C318.521 88.3217 318.128 89.3379 317.183 89.9524C316.238 90.567 315.053 90.8955 313.678 90.9625C311.91 90.9625 310.474 90.068 309.492 88.9667C308.706 87.8654 307.595 87.3117 306.158 87.3117H297.233C297.166 90.8104 298.393 93.8892 300.91 96.5482C303.427 99.2072 306.416 100.935 310.339 101.647C311.063 101.781 312.512 101.994 313.61 101.994C314.703 101.994 316.158 101.836 316.747 101.708C320.541 100.996 323.61 99.2437 326.163 96.6516C328.711 94.0596 329.988 91.0477 329.988 87.6098C330 83.594 328.619 80.0101 324.997 77.4424Z" fill="white"/>
</g>
<defs>
<linearGradient id="paint0_linear_1080_729" x1="-46.425" y1="16.6093" x2="120.106" y2="124.038" gradientUnits="userSpaceOnUse">
<stop stop-color="#EC2986"/>
<stop offset="0.8389" stop-color="#AC035B"/>
</linearGradient>
<linearGradient id="paint1_linear_1080_729" x1="-19.1169" y1="84.5041" x2="158.364" y2="27.0421" gradientUnits="userSpaceOnUse">
<stop stop-color="#EC2986"/>
<stop offset="0.8389" stop-color="#AC035B"/>
</linearGradient>
<linearGradient id="paint2_linear_1080_729" x1="69.3799" y1="28.8116" x2="-20.6504" y2="27.7724" gradientUnits="userSpaceOnUse">
<stop stop-color="#0D0E19"/>
<stop offset="0.6022" stop-color="#20222A"/>
<stop offset="0.8398" stop-color="#3E4151"/>
<stop offset="1" stop-color="#4E5266"/>
</linearGradient>
<linearGradient id="paint3_linear_1080_729" x1="52.533" y1="24.1051" x2="52.835" y2="24.1051" gradientUnits="userSpaceOnUse">
<stop stop-color="#0D0E19"/>
<stop offset="0.6022" stop-color="#20222A"/>
<stop offset="0.8398" stop-color="#3E4151"/>
<stop offset="1" stop-color="#4E5266"/>
</linearGradient>
<linearGradient id="paint4_linear_1080_729" x1="102.097" y1="51.7818" x2="62.199" y2="56.5459" gradientUnits="userSpaceOnUse">
<stop stop-color="#0D0E19"/>
<stop offset="0.6022" stop-color="#20222A"/>
<stop offset="0.8398" stop-color="#3E4151"/>
<stop offset="1" stop-color="#4E5266"/>
</linearGradient>
<linearGradient id="paint5_linear_1080_729" x1="26.8486" y1="13.5981" x2="91.7836" y2="58.5906" gradientUnits="userSpaceOnUse">
<stop stop-color="#0D0E19"/>
<stop offset="0.6022" stop-color="#20222A"/>
<stop offset="0.8398" stop-color="#3E4151"/>
<stop offset="1" stop-color="#4E5266"/>
</linearGradient>
<linearGradient id="paint6_linear_1080_729" x1="35.4386" y1="117.108" x2="72.7977" y2="87.8075" gradientUnits="userSpaceOnUse">
<stop offset="0.6022" stop-color="#20222A"/>
<stop offset="0.8398" stop-color="#3E4151"/>
<stop offset="1" stop-color="#4E5266"/>
</linearGradient>
<linearGradient id="paint7_linear_1080_729" x1="37.4743" y1="60.1562" x2="60.0969" y2="64.6841" gradientUnits="userSpaceOnUse">
<stop offset="0.6022" stop-color="#20222A"/>
<stop offset="0.8398" stop-color="#3E4151"/>
<stop offset="1" stop-color="#4E5266"/>
</linearGradient>
<linearGradient id="paint8_linear_1080_729" x1="47.0286" y1="53.5472" x2="43.4402" y2="115.771" gradientUnits="userSpaceOnUse">
<stop stop-color="#0D0E19"/>
<stop offset="0.6022" stop-color="#20222A"/>
<stop offset="0.8398" stop-color="#3E4151"/>
<stop offset="1" stop-color="#4E5266"/>
</linearGradient>
<clipPath id="clip0_1080_729">
<rect width="330" height="137" fill="white"/>
</clipPath>
</defs>
</svg>
