<svg width="216" height="93" viewBox="0 0 216 93" fill="none" xmlns="http://www.w3.org/2000/svg">
<g filter="url(#filter0_d_2080_1821)">
<path d="M34.8306 68.5205C29.3141 68.5205 24.0114 67.6758 19.0935 66.1555L41.459 78.9517C42.7847 79.7118 44.4525 79.7118 45.821 78.9517L76.9103 61.2144C78.236 60.4542 79.0913 59.0184 79.0913 57.498V40.0564C73.703 56.4845 55.9132 68.5205 34.8306 68.5205Z" fill="url(#paint0_linear_2080_1821)"/>
<path d="M76.9103 18.3074L45.821 0.570126C44.4953 -0.190042 42.8275 -0.190042 41.459 0.570126L10.3697 18.3074C9.00123 19.0676 8.18872 20.4612 8.18872 22.0238V23.9664V57.4983C8.18872 59.0186 9.00123 60.4545 10.3697 61.2147L19.0935 66.198C24.0114 67.7183 29.3141 68.5629 34.8306 68.5629C55.9132 68.5629 73.6603 56.527 79.0913 40.0989V22.0238C79.0913 20.4612 78.2788 19.0676 76.9103 18.3074Z" fill="url(#paint1_linear_2080_1821)"/>
<path d="M41.0828 16.9348L29.0625 24.2253H42.7329V16.7216L42.1114 16.7216C41.8422 16.7112 41.3767 16.7714 41.0828 16.9348Z" fill="url(#paint2_linear_2080_1821)"/>
<path d="M40.1243 18.6794C40.0874 18.752 40.0137 18.8246 39.9768 18.8971C40.0137 18.7883 40.0505 18.7157 40.1243 18.6794Z" fill="url(#paint3_linear_2080_1821)"/>
<path d="M46.81 34.2437H43.3567V42.144H46.3126C46.3126 42.144 50.7776 42.443 55.0392 39.9034C56.6556 38.9601 58.0149 37.5815 59.1905 35.84C60.3661 34.0986 60.9539 31.9581 60.9539 29.491C60.9539 28.0398 60.7702 26.7338 60.4395 25.5002C56.325 34.9693 47.9121 34.28 46.81 34.2437Z" fill="url(#paint4_linear_2080_1821)"/>
<path d="M57.1701 20.1308C55.0026 18.1717 51.6564 16.7205 47.9858 16.7205H47.8021C47.7654 16.7205 46.4658 16.7205 46.4658 16.7205L41.2731 16.7391L40.5699 16.7205C39.8654 16.708 39.0771 16.9319 38.802 17.1195L26.491 24.4129L38.9354 24.4129H46.8837C48.2062 24.558 49.364 24.6387 50.5172 25.9138C51.1959 26.6643 51.3656 28.1124 51.3656 29.6362C51.3656 31.1599 50.9615 32.2846 50.1533 33.0828C49.3451 33.8446 48.2429 34.2437 46.8837 34.2437C47.9858 34.3163 56.3986 34.9693 60.5132 25.5365C59.8887 23.396 58.7866 21.582 57.1701 20.1308Z" fill="url(#paint5_linear_2080_1821)"/>
<path d="M38.6926 62.7591L51.5109 56.5295C52.2749 56.073 52.7715 55.2361 52.7715 54.3232V47.8315L38.6926 54.3232V62.7591Z" fill="url(#paint6_linear_2080_1821)"/>
<path d="M33.9154 34.3525L33.6582 42.1527H44.8998L45.855 34.2437L33.9154 34.3525Z" fill="url(#paint7_linear_2080_1821)"/>
<path d="M38.7177 42.2793C38.7177 42.2793 38.7177 40.3295 38.7177 39.2774C38.7177 38.2252 38.8377 34.6791 41.8135 34.3526C42.2176 34.3163 43.0625 34.28 43.0625 34.28H34.3686C32.642 34.28 31.123 36.4828 31.123 38.1516V57.4765L38.7177 62.7298C38.7177 62.7298 38.7177 43.0298 38.7177 42.2793Z" fill="url(#paint8_linear_2080_1821)"/>
</g>
<g clip-path="url(#clip0_2080_1821)">
<g filter="url(#filter1_d_2080_1821)">
<path d="M105.287 21.9719C109.06 21.9719 112.277 23.2953 114.95 25.9384C117.619 28.5852 118.955 31.771 118.955 35.507C118.955 39.2393 117.619 42.4288 114.95 45.0756C112.277 47.7224 109.06 49.0421 105.287 49.0421H95.8044V61.9936H88.6755V29.0313V21.9719H105.287ZM105.287 41.9828C107.093 41.9828 108.636 41.3508 109.912 40.0869C111.188 38.823 111.826 37.2951 111.826 35.507C111.826 33.7189 111.188 32.1911 109.912 30.9272C108.636 29.6633 107.093 29.0313 105.287 29.0313H95.8044V48.2838C95.9996 46.5329 96.7767 45.0459 98.1318 43.8229C99.487 42.5961 101.067 41.9865 102.873 41.9865H105.287V41.9828Z" fill="white"/>
</g>
<g filter="url(#filter2_d_2080_1821)">
<path d="M129.91 61.9304V61.9899H122.785V21.9719C124.748 21.9719 126.426 22.6634 127.823 24.0425C129.215 25.4217 129.913 27.0871 129.913 29.0313V54.8747H135.687V56.2167C135.687 57.8115 135.128 59.1609 134.009 60.2724C132.887 61.3765 131.52 61.9304 129.91 61.9304Z" fill="white"/>
</g>
<g filter="url(#filter3_d_2080_1821)">
<path d="M152.531 61.9895C148.957 61.9895 145.894 60.7256 143.341 58.1978C140.788 55.6699 139.512 52.6365 139.512 49.0975C139.512 45.5586 140.788 42.5252 143.341 39.9973C145.894 37.4695 148.957 36.2056 152.531 36.2056C154.573 36.2056 156.536 36.674 158.421 37.607V36.2056C160.384 36.2056 162.062 36.897 163.458 38.2762C164.851 39.6553 165.549 41.3207 165.549 43.2649V61.9895H158.421V60.5881C156.536 61.5249 154.573 61.9895 152.531 61.9895ZM156.686 44.9861C155.526 43.8411 154.145 43.2649 152.534 43.2649C150.924 43.2649 149.539 43.8374 148.382 44.9861C147.222 46.1348 146.644 47.5028 146.644 49.0975C146.644 50.6923 147.222 52.064 148.382 53.209C149.539 54.3577 150.924 54.9302 152.534 54.9302C154.145 54.9302 155.53 54.3577 156.686 53.209C157.842 52.064 158.424 50.6923 158.424 49.0975C158.421 47.5028 157.842 46.1311 156.686 44.9861Z" fill="white"/>
</g>
<g filter="url(#filter4_d_2080_1821)">
<path d="M186.17 36.2059C186.17 37.9568 185.611 39.4735 184.492 40.756C183.374 42.0385 181.97 42.8377 180.28 43.1463V49.0978C180.28 50.6926 180.858 52.0643 182.018 53.2093C183.175 54.358 184.56 54.9305 186.17 54.9305V61.9898C182.597 61.9898 179.545 60.7371 177.011 58.2278C174.477 55.7185 173.212 52.6777 173.212 49.0978V43.2652H166.792C166.792 41.4771 167.412 39.9121 168.647 38.5701C169.882 37.2281 171.406 36.4624 173.212 36.2653V35.2728C173.212 33.5628 173.899 32.0944 175.273 30.8677C176.646 29.6409 178.317 29.0312 180.28 29.0312V36.2059H186.17Z" fill="white"/>
</g>
<g filter="url(#filter5_d_2080_1821)">
<path d="M205.481 47.2912C204.49 46.5923 202.339 45.2168 199.013 44.9641C198.63 44.9343 198.318 45.0496 197.203 44.8005C196.877 44.7261 196.396 44.6369 196.182 44.0607C196.118 43.8897 196.107 43.7336 196.115 43.5849C196.115 43.5737 196.107 43.57 196.107 43.5589C196.107 43.544 196.118 43.5291 196.118 43.5143C196.133 43.3879 196.163 43.2726 196.212 43.1648C196.445 42.5886 197.136 42.0942 198.078 42.031C199.047 41.9678 199.82 42.4065 200.158 43.0607C200.319 43.4511 200.661 44.057 201.1 44.057H207.099C207.099 41.9604 206.22 40.1574 204.46 38.6519C202.699 37.1463 200.582 36.3768 198.104 36.3359C195.627 36.3768 193.517 37.1463 191.779 38.6519C190.041 40.1574 189.17 41.9567 189.17 44.057C189.17 46.1573 190.041 47.9566 191.779 49.4621C193.517 50.9677 195.627 51.7186 198.104 51.7186C199.103 51.7186 199.921 51.8784 200.563 52.1944C201.201 52.5104 201.52 52.9491 201.52 53.4992C201.52 53.9379 201.28 54.5587 200.702 54.9342C200.124 55.3096 199.399 55.5104 198.559 55.5512C197.477 55.5512 196.599 55.0048 195.998 54.3319C195.518 53.6591 194.838 53.3208 193.96 53.3208H188.502C188.46 55.4583 189.211 57.3393 190.75 58.9638C192.289 60.5883 194.118 61.6441 196.516 62.079C196.959 62.1608 197.845 62.2909 198.517 62.2909C199.185 62.2909 200.075 62.1943 200.436 62.1162C202.756 61.6813 204.632 60.6106 206.194 59.027C207.752 57.4434 208.533 55.6033 208.533 53.503C208.54 51.0495 207.696 48.8599 205.481 47.2912Z" fill="white"/>
</g>
</g>
<defs>
<filter id="filter0_d_2080_1821" x="-4" y="0" width="87.0913" height="101" filterUnits="userSpaceOnUse" color-interpolation-filters="sRGB">
<feFlood flood-opacity="0" result="BackgroundImageFix"/>
<feColorMatrix in="SourceAlpha" type="matrix" values="0 0 0 0 0 0 0 0 0 0 0 0 0 0 0 0 0 0 127 0" result="hardAlpha"/>
<feOffset dy="4"/>
<feGaussianBlur stdDeviation="2"/>
<feComposite in2="hardAlpha" operator="out"/>
<feColorMatrix type="matrix" values="0 0 0 0 0 0 0 0 0 0 0 0 0 0 0 0 0 0 0.25 0"/>
<feBlend mode="normal" in2="BackgroundImageFix" result="effect1_dropShadow_2080_1821"/>
<feBlend mode="normal" in="SourceGraphic" in2="effect1_dropShadow_2080_1821" result="shape"/>
</filter>
<filter id="filter1_d_2080_1821" x="85.6755" y="20.9719" width="36.2798" height="46.0217" filterUnits="userSpaceOnUse" color-interpolation-filters="sRGB">
<feFlood flood-opacity="0" result="BackgroundImageFix"/>
<feColorMatrix in="SourceAlpha" type="matrix" values="0 0 0 0 0 0 0 0 0 0 0 0 0 0 0 0 0 0 127 0" result="hardAlpha"/>
<feOffset dy="2"/>
<feGaussianBlur stdDeviation="1.5"/>
<feComposite in2="hardAlpha" operator="out"/>
<feColorMatrix type="matrix" values="0 0 0 0 0 0 0 0 0 0 0 0 0 0 0 0 0 0 0.18 0"/>
<feBlend mode="normal" in2="BackgroundImageFix" result="effect1_dropShadow_2080_1821"/>
<feBlend mode="normal" in="SourceGraphic" in2="effect1_dropShadow_2080_1821" result="shape"/>
</filter>
<filter id="filter2_d_2080_1821" x="119.785" y="20.9719" width="18.9026" height="46.0181" filterUnits="userSpaceOnUse" color-interpolation-filters="sRGB">
<feFlood flood-opacity="0" result="BackgroundImageFix"/>
<feColorMatrix in="SourceAlpha" type="matrix" values="0 0 0 0 0 0 0 0 0 0 0 0 0 0 0 0 0 0 127 0" result="hardAlpha"/>
<feOffset dy="2"/>
<feGaussianBlur stdDeviation="1.5"/>
<feComposite in2="hardAlpha" operator="out"/>
<feColorMatrix type="matrix" values="0 0 0 0 0 0 0 0 0 0 0 0 0 0 0 0 0 0 0.18 0"/>
<feBlend mode="normal" in2="BackgroundImageFix" result="effect1_dropShadow_2080_1821"/>
<feBlend mode="normal" in="SourceGraphic" in2="effect1_dropShadow_2080_1821" result="shape"/>
</filter>
<filter id="filter3_d_2080_1821" x="136.512" y="35.2056" width="32.0376" height="31.7839" filterUnits="userSpaceOnUse" color-interpolation-filters="sRGB">
<feFlood flood-opacity="0" result="BackgroundImageFix"/>
<feColorMatrix in="SourceAlpha" type="matrix" values="0 0 0 0 0 0 0 0 0 0 0 0 0 0 0 0 0 0 127 0" result="hardAlpha"/>
<feOffset dy="2"/>
<feGaussianBlur stdDeviation="1.5"/>
<feComposite in2="hardAlpha" operator="out"/>
<feColorMatrix type="matrix" values="0 0 0 0 0 0 0 0 0 0 0 0 0 0 0 0 0 0 0.18 0"/>
<feBlend mode="normal" in2="BackgroundImageFix" result="effect1_dropShadow_2080_1821"/>
<feBlend mode="normal" in="SourceGraphic" in2="effect1_dropShadow_2080_1821" result="shape"/>
</filter>
<filter id="filter4_d_2080_1821" x="163.792" y="28.0312" width="25.3782" height="38.9585" filterUnits="userSpaceOnUse" color-interpolation-filters="sRGB">
<feFlood flood-opacity="0" result="BackgroundImageFix"/>
<feColorMatrix in="SourceAlpha" type="matrix" values="0 0 0 0 0 0 0 0 0 0 0 0 0 0 0 0 0 0 127 0" result="hardAlpha"/>
<feOffset dy="2"/>
<feGaussianBlur stdDeviation="1.5"/>
<feComposite in2="hardAlpha" operator="out"/>
<feColorMatrix type="matrix" values="0 0 0 0 0 0 0 0 0 0 0 0 0 0 0 0 0 0 0.18 0"/>
<feBlend mode="normal" in2="BackgroundImageFix" result="effect1_dropShadow_2080_1821"/>
<feBlend mode="normal" in="SourceGraphic" in2="effect1_dropShadow_2080_1821" result="shape"/>
</filter>
<filter id="filter5_d_2080_1821" x="185.5" y="35.3359" width="26.033" height="31.9551" filterUnits="userSpaceOnUse" color-interpolation-filters="sRGB">
<feFlood flood-opacity="0" result="BackgroundImageFix"/>
<feColorMatrix in="SourceAlpha" type="matrix" values="0 0 0 0 0 0 0 0 0 0 0 0 0 0 0 0 0 0 127 0" result="hardAlpha"/>
<feOffset dy="2"/>
<feGaussianBlur stdDeviation="1.5"/>
<feComposite in2="hardAlpha" operator="out"/>
<feColorMatrix type="matrix" values="0 0 0 0 0 0 0 0 0 0 0 0 0 0 0 0 0 0 0.18 0"/>
<feBlend mode="normal" in2="BackgroundImageFix" result="effect1_dropShadow_2080_1821"/>
<feBlend mode="normal" in="SourceGraphic" in2="effect1_dropShadow_2080_1821" result="shape"/>
</filter>
<linearGradient id="paint0_linear_2080_1821" x1="2.87824" y1="65.3724" x2="82.942" y2="67.0722" gradientUnits="userSpaceOnUse">
<stop offset="0.585587" stop-color="#BBDEFF"/>
<stop offset="1" stop-color="#8EC2FF"/>
</linearGradient>
<linearGradient id="paint1_linear_2080_1821" x1="5.32924" y1="48.4184" x2="80.0663" y2="20.772" gradientUnits="userSpaceOnUse">
<stop stop-color="white"/>
<stop offset="1" stop-color="#A8D6F9"/>
</linearGradient>
<linearGradient id="paint2_linear_2080_1821" x1="48.4302" y1="20.6288" x2="2.92862" y2="20.038" gradientUnits="userSpaceOnUse">
<stop stop-color="#0D0E19"/>
<stop offset="0.6022" stop-color="#20222A"/>
<stop offset="0.8398" stop-color="#3E4151"/>
<stop offset="1" stop-color="#4E5266"/>
</linearGradient>
<linearGradient id="paint3_linear_2080_1821" x1="39.967" y1="18.7634" x2="40.1196" y2="18.7634" gradientUnits="userSpaceOnUse">
<stop stop-color="#0D0E19"/>
<stop offset="0.6022" stop-color="#20222A"/>
<stop offset="0.8398" stop-color="#3E4151"/>
<stop offset="1" stop-color="#4E5266"/>
</linearGradient>
<linearGradient id="paint4_linear_2080_1821" x1="65.0175" y1="32.5645" x2="44.8602" y2="35.0042" gradientUnits="userSpaceOnUse">
<stop stop-color="#0D0E19"/>
<stop offset="0.6022" stop-color="#20222A"/>
<stop offset="0.8398" stop-color="#3E4151"/>
<stop offset="1" stop-color="#4E5266"/>
</linearGradient>
<linearGradient id="paint5_linear_2080_1821" x1="26.9857" y1="13.5242" x2="59.5167" y2="36.3704" gradientUnits="userSpaceOnUse">
<stop stop-color="#0D0E19"/>
<stop offset="0.6022" stop-color="#20222A"/>
<stop offset="0.8398" stop-color="#3E4151"/>
<stop offset="1" stop-color="#4E5266"/>
</linearGradient>
<linearGradient id="paint6_linear_2080_1821" x1="31.0737" y1="65.3304" x2="50.63" y2="49.9127" gradientUnits="userSpaceOnUse">
<stop offset="0.6022" stop-color="#20222A"/>
<stop offset="0.8398" stop-color="#3E4151"/>
<stop offset="1" stop-color="#4E5266"/>
</linearGradient>
<linearGradient id="paint7_linear_2080_1821" x1="32.3562" y1="36.7404" x2="43.7781" y2="39.0575" gradientUnits="userSpaceOnUse">
<stop offset="0.6022" stop-color="#20222A"/>
<stop offset="0.8398" stop-color="#3E4151"/>
<stop offset="1" stop-color="#4E5266"/>
</linearGradient>
<linearGradient id="paint8_linear_2080_1821" x1="37.1847" y1="33.4449" x2="35.4192" y2="64.4755" gradientUnits="userSpaceOnUse">
<stop stop-color="#0D0E19"/>
<stop offset="0.6022" stop-color="#20222A"/>
<stop offset="0.8398" stop-color="#3E4151"/>
<stop offset="1" stop-color="#4E5266"/>
</linearGradient>
<clipPath id="clip0_2080_1821">
<rect width="130.515" height="67.7796" fill="white" transform="translate(85.1184 18.9153)"/>
</clipPath>
</defs>
</svg>
