<svg width="14" height="20" viewBox="0 0 14 20" fill="none" xmlns="http://www.w3.org/2000/svg">
<path fill-rule="evenodd" clip-rule="evenodd" d="M10.204 6.69194L9.29198 7.58394C9.25998 7.61194 9.24798 7.65594 9.25598 7.69994L9.47198 8.95993C9.52798 9.29193 9.39598 9.62393 9.12398 9.82393C8.97198 9.93593 8.79198 9.99193 8.60798 9.99193C8.46798 9.99193 8.32798 9.95993 8.19998 9.88793L7.07598 9.29193C7.03998 9.27193 6.99198 9.27193 6.95598 9.29193L5.83198 9.88793C5.53598 10.0439 5.17998 10.0199 4.90798 9.81993C4.63598 9.61993 4.50398 9.29193 4.55998 8.95593L4.77598 7.69594C4.78398 7.65194 4.76798 7.61194 4.73998 7.57994L3.82798 6.68794C3.58798 6.45194 3.50398 6.10394 3.60798 5.78394C3.71198 5.46394 3.98398 5.23194 4.31598 5.18394L5.57198 4.99994C5.61198 4.99194 5.65198 4.96794 5.66798 4.92794L6.23198 3.77994C6.37998 3.47594 6.68398 3.28794 7.01998 3.28794C7.35598 3.28794 7.65598 3.47594 7.80798 3.77994L8.37198 4.92794C8.39198 4.96794 8.42798 4.99194 8.46798 4.99994L9.72398 5.18394C10.056 5.23194 10.328 5.46394 10.432 5.78394C10.536 6.10394 10.448 6.45594 10.204 6.69194ZM7.01598 0.387939C3.46798 0.387939 0.583984 3.29194 0.583984 6.86394C0.583984 10.4359 3.46798 13.3399 7.01598 13.3399C10.564 13.3399 13.448 10.4359 13.448 6.86394C13.448 3.29194 10.56 0.387939 7.01598 0.387939ZM2.80798 12.7159V19.2119C2.80798 19.3399 2.87198 19.4599 2.98398 19.5319C3.04398 19.5719 3.11198 19.5919 3.18398 19.5919C3.23998 19.5919 3.29198 19.5799 3.34398 19.5559L4.65998 18.9239V13.6879C3.98798 13.4559 3.36798 13.1239 2.80798 12.7159ZM7.01598 14.0879C6.46398 14.0879 5.92398 14.0239 5.40398 13.9039V18.5599L7.01598 17.7839L8.62798 18.5599V13.9079C8.10798 14.0279 7.56798 14.0879 7.01598 14.0879ZM9.37598 13.6879V18.9199L10.692 19.5519C10.808 19.6079 10.944 19.5999 11.052 19.5319C11.16 19.4639 11.228 19.3439 11.228 19.2119V12.7159C10.664 13.1239 10.04 13.4559 9.37598 13.6879ZM9.61198 5.93194L8.35598 5.74794C8.07198 5.70794 7.82398 5.52394 7.69598 5.26394L7.13198 4.11594C7.09998 4.05194 7.04798 4.04394 7.01598 4.04394C6.98798 4.04394 6.93198 4.05194 6.89998 4.11594L6.33598 5.26394C6.20798 5.52394 5.95998 5.70394 5.67598 5.74794L4.41998 5.93194C4.35198 5.94394 4.32398 5.99194 4.31598 6.01994C4.30798 6.04794 4.29998 6.10394 4.34798 6.15194L5.25998 7.04394C5.46798 7.24794 5.55998 7.53994 5.51198 7.82394L5.29598 9.08393C5.28398 9.15193 5.32398 9.19193 5.34798 9.21193C5.37198 9.22793 5.42398 9.25593 5.48398 9.21993L6.60798 8.62394C6.73598 8.55594 6.87598 8.52394 7.01598 8.52394C7.15598 8.52394 7.29598 8.55594 7.42398 8.62394L8.54798 9.21993C8.60798 9.25193 8.65998 9.22793 8.68398 9.21193C8.70798 9.19593 8.74798 9.15593 8.73598 9.08393L8.51998 7.82394C8.47198 7.53594 8.56398 7.24394 8.77198 7.04394L9.68398 6.15194C9.73198 6.10394 9.72398 6.04794 9.71598 6.01994C9.70798 5.99194 9.67998 5.94394 9.61198 5.93194Z" fill="url(#paint0_linear_2315_2357)"/>
<defs>
<linearGradient id="paint0_linear_2315_2357" x1="0.58456" y1="9.98812" x2="13.4469" y2="9.98812" gradientUnits="userSpaceOnUse">
<stop stop-color="#009444"/>
<stop offset="1" stop-color="#8DC63F"/>
</linearGradient>
</defs>
</svg>
