<svg width="18" height="17" viewBox="0 0 18 17" fill="none" xmlns="http://www.w3.org/2000/svg">
<g clip-path="url(#clip0_2315_2369)">
<path d="M16.1139 12.6745C15.7696 13.2487 14.7366 13.313 14.2513 13.7776C14.2161 13.8154 14.1848 13.8569 14.1496 13.8985C13.7583 14.3972 13.6487 15.2661 13.1009 15.5721C12.5139 15.897 11.5826 15.4587 10.9135 15.6287C10.599 15.7418 10.3086 15.9096 10.0566 16.1236C9.76484 16.3958 9.39044 16.5706 8.98829 16.6223C8.58556 16.5698 8.21101 16.3937 7.92003 16.1198C7.66881 15.9029 7.37831 15.7325 7.06308 15.6174C6.39786 15.4436 5.46655 15.8781 4.8796 15.5494C4.33177 15.2434 4.23003 14.3745 3.83873 13.8758C3.80922 13.8311 3.77514 13.7893 3.73699 13.7512C3.25568 13.2865 2.22264 13.2109 1.87829 12.6367C1.54177 12.0738 1.99568 11.1747 1.8196 10.5287C1.64742 9.90539 0.790466 9.34628 0.790466 8.67006C0.790466 7.99384 1.65525 7.43473 1.83134 6.81139C2.01134 6.16539 1.56134 5.26628 1.90177 4.70339C2.24612 4.12917 3.28308 4.06495 3.76438 3.60028C4.24568 3.13562 4.32394 2.13828 4.91873 1.80584C5.50177 1.48095 6.43307 1.91917 7.10221 1.74917C7.74786 1.58295 8.3309 0.755615 9.03134 0.755615C9.73177 0.755615 10.307 1.5905 10.9526 1.7605C11.6218 1.93428 12.5531 1.49984 13.1361 1.8285C13.7309 2.16095 13.7974 3.16206 14.2787 3.62673C14.76 4.09139 15.7931 4.16695 16.1374 4.74117C16.4739 5.30406 16.02 6.20317 16.1961 6.84917C16.3683 7.4725 17.2292 8.03162 17.2253 8.70784C17.2213 9.38406 16.3605 9.94317 16.1883 10.5665C16.0044 11.2125 16.4544 12.1116 16.1139 12.6745Z" fill="#258DFA"/>
<path d="M8.99997 13.2222C11.5933 13.2222 13.6956 11.1925 13.6956 8.68885C13.6956 6.18517 11.5933 4.15552 8.99997 4.15552C6.40664 4.15552 4.30432 6.18517 4.30432 8.68885C4.30432 11.1925 6.40664 13.2222 8.99997 13.2222Z" fill="white"/>
<path d="M14.0869 8.68894C14.0869 7.7176 13.7886 6.7681 13.2296 5.96048C12.6707 5.15283 11.8762 4.52338 10.9467 4.15168C10.0172 3.77995 8.99435 3.68271 8.00756 3.8722C7.0208 4.06169 6.11439 4.52942 5.40296 5.21626C4.69153 5.9031 4.20705 6.77818 4.01077 7.73082C3.81449 8.68351 3.91522 9.67094 4.30026 10.5684C4.68526 11.4657 5.33729 12.2327 6.17383 12.7724C7.01036 13.312 7.99386 13.6001 8.99998 13.6001C10.3487 13.5985 11.6416 13.0806 12.5953 12.16C13.5489 11.2393 14.0854 9.99099 14.0869 8.68894ZM8.99998 12.8445C8.14866 12.8445 7.31647 12.6008 6.6086 12.1442C5.90077 11.6876 5.34907 11.0385 5.02327 10.2792C4.69751 9.51987 4.61225 8.68434 4.77836 7.87823C4.94443 7.07213 5.3544 6.33169 5.95634 5.75051C6.55832 5.16934 7.32528 4.77358 8.16024 4.61325C8.99521 4.45288 9.86066 4.5352 10.6472 4.8497C11.4337 5.16424 12.106 5.69687 12.5789 6.38023C13.0519 7.06363 13.3043 7.86705 13.3043 8.68894C13.303 9.79066 12.849 10.8469 12.0421 11.6259C11.2352 12.405 10.1411 12.8432 8.99998 12.8445Z" fill="#231F20"/>
<path d="M14.6849 13.9327C14.88 13.8139 15.0401 13.7436 15.2566 13.6668C15.7359 13.5335 16.1565 13.2515 16.4532 12.8644C16.6527 12.428 16.6982 11.9405 16.5827 11.4768C16.5271 11.2091 16.5208 10.934 16.5639 10.6642C16.665 10.4215 16.8091 10.1977 16.9897 10.0027C17.3407 9.65077 17.5608 9.19638 17.6157 8.71071C17.5633 8.22458 17.3453 7.76898 16.9959 7.41531C16.816 7.21958 16.6731 6.99495 16.5737 6.75155C16.5317 6.48137 16.5393 6.20615 16.5964 5.93857C16.7143 5.47565 16.6714 4.98812 16.4743 4.551C16.1798 4.16226 15.761 3.87799 15.2824 3.74217C15.0192 3.65748 14.7736 3.52884 14.5565 3.36213C14.3845 3.15156 14.252 2.91347 14.1652 2.65871C14.0275 2.19566 13.7354 1.78944 13.3341 1.50309C12.8822 1.31062 12.3774 1.26682 11.8972 1.37842C11.6198 1.43225 11.3347 1.43813 11.0551 1.3958C10.8032 1.29779 10.5712 1.15777 10.3696 0.98213C10.0048 0.643331 9.53405 0.430775 9.03091 0.377686H9.02739C8.52507 0.429532 8.05461 0.640169 7.68913 0.976841C7.48628 1.15003 7.25376 1.28783 7.002 1.38409C6.7221 1.42412 6.43711 1.41658 6.15991 1.3618C5.68017 1.2476 5.1748 1.28902 4.72187 1.47966C4.31965 1.7641 4.02562 2.1685 3.88526 2.63037C3.79659 2.88489 3.66241 3.12245 3.48887 3.33229C3.27083 3.49851 3.0242 3.62639 2.76026 3.71006C2.28142 3.84395 1.86151 4.12619 1.56522 4.51322C1.366 4.94936 1.32065 5.43658 1.43609 5.90004C1.49165 6.16804 1.49772 6.44336 1.45409 6.7134C1.35344 6.95631 1.20948 7.18033 1.02874 7.37526C0.678051 7.72724 0.457904 8.1814 0.402652 8.66689C0.455321 9.15301 0.673434 9.60857 1.02287 9.96229C1.20271 10.158 1.34562 10.3826 1.44509 10.626C1.48676 10.8963 1.47893 11.1714 1.422 11.439C1.30418 11.9021 1.34691 12.3896 1.54369 12.827C1.83835 13.2155 2.2574 13.4995 2.736 13.635C2.95219 13.7131 3.852 14.6517 3.852 14.6517L-0.645266 20.5816C-0.684157 20.6462 -0.702322 20.7205 -0.697473 20.7951C-0.692621 20.8697 -0.664968 20.9412 -0.618011 21.0006C-0.571059 21.06 -0.506908 21.1046 -0.43368 21.1288C-0.360451 21.153 -0.281431 21.1557 -0.206614 21.1366L2.81739 20.3621L3.52174 22.917C3.54162 22.9893 3.58325 23.0542 3.6414 23.1036C3.69951 23.153 3.77151 23.1846 3.84824 23.1945C3.92502 23.2043 4.00304 23.192 4.07254 23.159C4.14203 23.1261 3.67862 22.5424 3.7174 22.4777L7.40661 16.2187C7.68095 16.4169 8.6436 16.984 8.98591 16.9999H8.98943C9.33061 16.985 9.6595 16.8723 9.93404 16.6762L13.7019 23.033C13.7363 23.0906 13.7858 23.1383 13.8455 23.1715C13.9051 23.2046 13.9727 23.222 14.0416 23.2219C14.0582 23.2219 14.0748 23.2208 14.0913 23.2185C14.168 23.209 14.2402 23.1777 14.2985 23.1286C14.3569 23.0796 14.3989 23.0148 14.4192 22.9427L15.1353 20.3927L18.1593 21.183C18.234 21.2025 18.3129 21.2002 18.3862 21.1763C18.4595 21.1524 18.5239 21.1081 18.5711 21.049C18.6183 20.9898 18.6464 20.9185 18.6516 20.844C18.6569 20.7695 18.6391 20.6951 18.6007 20.6304L14.6849 13.9327ZM4.03317 21.8404L3.47361 19.8045C3.44696 19.7077 3.38161 19.625 3.29185 19.5747C3.20212 19.5244 3.09533 19.5106 2.99504 19.5363L-0.0851834 19.8522L3.852 14.6517C3.86178 14.6747 3.84222 14.697 3.852 14.72C3.99009 15.1829 4.28236 15.5889 4.68352 15.8753C5.1354 16.0677 5.64018 16.1116 6.12039 16.0003C6.39783 15.9467 6.68285 15.9407 6.96248 15.9826C7.12346 16.036 7.27372 16.1159 7.40661 16.2187L4.03317 21.8404ZM8.98826 16.2444C8.66246 16.1785 8.36346 16.0229 8.12739 15.7963C7.84726 15.5567 7.52114 15.3725 7.16752 15.2542C7.00959 15.2149 6.84696 15.196 6.68387 15.1979C6.46274 15.2025 6.24213 15.2205 6.02335 15.2519C5.71187 15.3287 5.38419 15.3188 5.07835 15.2232C4.8366 15.0116 4.66255 14.7376 4.57669 14.4337C4.47171 14.1571 4.33131 13.8942 4.15878 13.6513C4.15409 13.6452 4.0633 13.5308 4.01596 13.4847C3.72929 13.2425 3.39629 13.0567 3.03574 12.938C2.72152 12.8536 2.43876 12.6844 2.22065 12.4503C2.12353 12.1544 2.115 11.838 2.196 11.5376C2.27129 11.173 2.27246 10.7977 2.19952 10.4326C2.07853 10.091 1.88965 9.77544 1.64348 9.50366C1.40979 9.27431 1.25006 8.98441 1.18369 8.66915C1.25194 8.35461 1.41312 8.06595 1.64778 7.83804C1.89595 7.56759 2.08675 7.25275 2.2093 6.91135C2.28443 6.54653 2.28522 6.1711 2.21165 5.80597C2.13226 5.50549 2.14255 5.18944 2.24139 4.8944C2.46064 4.66112 2.74441 4.49323 3.05922 4.41046C3.42027 4.29339 3.75417 4.10937 4.04217 3.86873C4.29316 3.59189 4.48552 3.27027 4.60839 2.92202C4.69573 2.61868 4.87053 2.34553 5.11239 2.13435C5.41882 2.04075 5.74638 2.03263 6.05739 2.11093C6.43504 2.18401 6.82384 2.18516 7.20196 2.11433C7.55585 1.99743 7.88271 1.81494 8.16417 1.57713C8.40158 1.35193 8.70136 1.19778 9.02739 1.13324C9.35315 1.19911 9.65219 1.35474 9.88826 1.58129C10.1683 1.82095 10.4945 2.00514 10.8481 2.1234C11.2257 2.19575 11.6143 2.19652 11.9923 2.12566C12.3038 2.04885 12.6314 2.0588 12.9373 2.15437C13.1789 2.36605 13.3528 2.64 13.4386 2.94393C13.5596 3.29251 13.7501 3.6149 13.9993 3.89291C14.286 4.13514 14.619 4.32085 14.9795 4.43955C15.2939 4.52414 15.5767 4.69346 15.795 4.92764C15.8921 5.22329 15.9007 5.53945 15.8197 5.8396C15.7441 6.20423 15.743 6.57955 15.8161 6.9446C15.937 7.2866 16.126 7.60246 16.3726 7.87431C16.6063 8.10343 16.7659 8.39326 16.832 8.70844C16.7639 9.02302 16.6026 9.31175 16.3679 9.53955C16.1206 9.81053 15.9307 10.1256 15.8087 10.467C15.7341 10.8316 15.7334 11.2068 15.8067 11.5716C15.8863 11.8724 15.876 12.1889 15.777 12.4843C15.5577 12.7176 15.2739 12.8855 14.9592 12.9683C14.5981 13.0851 14.2642 13.2691 13.9762 13.5096C13.9285 13.5553 13.8369 13.6694 13.8322 13.6758C13.6588 13.918 13.5171 14.1801 13.4104 14.456C13.3227 14.7593 13.1475 15.0323 12.9052 15.2432C12.5985 15.3366 12.2707 15.3447 11.9594 15.2667C11.5819 15.1934 11.1932 15.1922 10.8153 15.2633C10.4613 15.3801 10.1344 15.5626 9.85304 15.8005C9.61552 16.0257 9.31563 16.1799 8.98943 16.2444H8.98826ZM14.9615 19.5662C14.8616 19.5401 14.7551 19.5533 14.6653 19.6028C14.5755 19.6524 14.5096 19.7343 14.4822 19.8306L13.2608 22.2888L9.93404 16.6762C10.0674 16.5742 10.8538 16.0467 11.0148 15.9939C11.2946 15.9542 11.5796 15.9622 11.8565 16.0177C12.3363 16.1315 12.8415 16.0901 13.2946 15.8998C13.6968 15.6152 13.9909 15.2107 14.1316 14.7487C14.1417 14.7257 14.6751 13.9554 14.6849 13.9327L16.8094 17.5666L14.9615 19.5662Z" fill="#231F20"/>
<path d="M10.7753 8.33782C10.8859 8.41765 10.8859 8.58235 10.7753 8.66218L8.31704 10.4363C8.18477 10.5317 8 10.4372 8 10.2741L8 6.72592C8 6.5628 8.18477 6.46828 8.31704 6.56374L10.7753 8.33782Z" fill="#1D1D1D"/>
</g>
<defs>
<clipPath id="clip0_2315_2369">
<rect width="18" height="17" fill="white"/>
</clipPath>
</defs>
</svg>
