<?xml version="1.0" encoding="utf-8"?>
<!-- Generator: Adobe Illustrator 25.3.1, SVG Export Plug-In . SVG Version: 6.00 Build 0)  -->
<svg version="1.1" id="Layer_1" xmlns="http://www.w3.org/2000/svg" xmlns:xlink="http://www.w3.org/1999/xlink" x="0px" y="0px"
	 viewBox="0 0 189.6 207.8" style="enable-background:new 0 0 189.6 207.8;" xml:space="preserve">
<style type="text/css">
	.st0{fill:url(#SVGID_1_);}
	.st1{fill:url(#SVGID_2_);}
	.st2{fill:url(#SVGID_3_);}
	.st3{fill:url(#SVGID_4_);}
	.st4{fill:url(#SVGID_5_);}
	.st5{fill:url(#SVGID_6_);}
	.st6{fill:url(#SVGID_7_);}
	.st7{fill:url(#SVGID_8_);}
	.st8{fill:url(#SVGID_9_);}
</style>
<linearGradient id="SVGID_1_" gradientUnits="userSpaceOnUse" x1="-3.6176" y1="59.5054" x2="190.7763" y2="55.408" gradientTransform="matrix(1 0 0 -1 0 210)">
	<stop  offset="0.5856" style="stop-color:#BBDEFF"/>
	<stop  offset="1" style="stop-color:#8EC2FF"/>
</linearGradient>
<path class="st0" d="M73.6,174.8c-13.4,0-26.3-2.1-38.2-5.8l54.3,31.3c3.2,1.9,7.3,1.9,10.6,0l75.5-43.4c3.2-1.9,5.3-5.4,5.3-9.1
	v-42.7C168,145.4,124.8,174.8,73.6,174.8z"/>
<linearGradient id="SVGID_2_" gradientUnits="userSpaceOnUse" x1="-33.1223" y1="71.8912" x2="148.6496" y2="138.6491" gradientTransform="matrix(1 0 0 -1 0 210)">
	<stop  offset="0" style="stop-color:#FFFFFF"/>
	<stop  offset="1" style="stop-color:#A8D6F9"/>
</linearGradient>
<path class="st1" d="M175.8,52L100.3,8.7c-3.2-1.9-7.3-1.9-10.6,0L14.2,52c-3.3,1.9-5.3,5.3-5.3,9.1v4.8v82c0,3.7,2,7.2,5.3,9.1
	l21.2,12.2c11.9,3.7,24.8,5.8,38.2,5.8c51.2,0,94.3-29.4,107.5-69.6V61.1C181.1,57.3,179.1,53.9,175.8,52z"/>
<linearGradient id="SVGID_3_" gradientUnits="userSpaceOnUse" x1="106.6307" y1="152.2751" x2="-3.8459" y2="153.699" gradientTransform="matrix(1 0 0 -1 0 210)">
	<stop  offset="0" style="stop-color:#0D0E19"/>
	<stop  offset="0.6022" style="stop-color:#20222A"/>
	<stop  offset="0.8398" style="stop-color:#3E4151"/>
	<stop  offset="1" style="stop-color:#4E5266"/>
</linearGradient>
<path class="st2" d="M88.8,48.7L59.6,66.5h33.2V48.2h-1.5C90.6,48.1,89.5,48.3,88.8,48.7z"/>
<linearGradient id="SVGID_4_" gradientUnits="userSpaceOnUse" x1="86.0832" y1="156.788" x2="86.4538" y2="156.788" gradientTransform="matrix(1 0 0 -1 0 210)">
	<stop  offset="0" style="stop-color:#0D0E19"/>
	<stop  offset="0.6022" style="stop-color:#20222A"/>
	<stop  offset="0.8398" style="stop-color:#3E4151"/>
	<stop  offset="1" style="stop-color:#4E5266"/>
</linearGradient>
<path class="st3" d="M86.5,52.9c-0.1,0.2-0.3,0.4-0.4,0.5C86.2,53.2,86.3,53,86.5,52.9z"/>
<linearGradient id="SVGID_5_" gradientUnits="userSpaceOnUse" x1="146.8914" y1="123.2117" x2="97.9398" y2="117.3296" gradientTransform="matrix(1 0 0 -1 0 210)">
	<stop  offset="0" style="stop-color:#0D0E19"/>
	<stop  offset="0.6022" style="stop-color:#20222A"/>
	<stop  offset="0.8398" style="stop-color:#3E4151"/>
	<stop  offset="1" style="stop-color:#4E5266"/>
</linearGradient>
<path class="st4" d="M102.7,91h-8.4v19.3h7.2c0,0,10.8,0.7,21.2-5.5c3.9-2.3,7.2-5.7,10.1-9.9c2.9-4.3,4.3-9.5,4.3-15.5
	c0-3.5-0.4-6.7-1.2-9.8C125.8,92.8,105.4,91.1,102.7,91z"/>
<linearGradient id="SVGID_6_" gradientUnits="userSpaceOnUse" x1="56.3861" y1="172.274" x2="135.7448" y2="116.9405" gradientTransform="matrix(1 0 0 -1 0 210)">
	<stop  offset="0" style="stop-color:#0D0E19"/>
	<stop  offset="0.6022" style="stop-color:#20222A"/>
	<stop  offset="0.8398" style="stop-color:#3E4151"/>
	<stop  offset="1" style="stop-color:#4E5266"/>
</linearGradient>
<path class="st5" d="M127.9,56.5c-5.3-4.8-13.4-8.3-22.3-8.3h-0.4c-0.1,0-3.2,0-3.2,0l-12.6,0l-1.7,0c-1.7,0-3.6,0.5-4.3,1L53.4,67
	h30.2h19.3c3.2,0.4,6,0.6,8.8,3.7c1.6,1.8,2.1,5.4,2.1,9.1s-1,6.5-2.9,8.4c-2,1.9-4.6,2.8-7.9,2.8c2.7,0.2,23.1,1.8,33.1-21.3
	C134.5,64.5,131.8,60,127.9,56.5z"/>
<linearGradient id="SVGID_7_" gradientUnits="userSpaceOnUse" x1="65.6885" y1="41.4389" x2="113.432" y2="78.8091" gradientTransform="matrix(1 0 0 -1 0 210)">
	<stop  offset="0.6022" style="stop-color:#20222A"/>
	<stop  offset="0.8398" style="stop-color:#3E4151"/>
	<stop  offset="1" style="stop-color:#4E5266"/>
</linearGradient>
<path class="st6" d="M83,160.7l31.1-15.2c1.9-1.1,3.1-3.2,3.1-5.4v-15.9L83,140.1V160.7z"/>
<linearGradient id="SVGID_8_" gradientUnits="userSpaceOnUse" x1="67.6145" y1="112.9381" x2="95.3621" y2="107.3494" gradientTransform="matrix(1 0 0 -1 0 210)">
	<stop  offset="0.6022" style="stop-color:#20222A"/>
	<stop  offset="0.8398" style="stop-color:#3E4151"/>
	<stop  offset="1" style="stop-color:#4E5266"/>
</linearGradient>
<path class="st7" d="M71.4,91.3l-0.6,19.1h27.3l2.3-19.3L71.4,91.3z"/>
<linearGradient id="SVGID_9_" gradientUnits="userSpaceOnUse" x1="79.4873" y1="120.9365" x2="75.1387" y2="45.0547" gradientTransform="matrix(1 0 0 -1 0 210)">
	<stop  offset="0" style="stop-color:#0D0E19"/>
	<stop  offset="0.6022" style="stop-color:#20222A"/>
	<stop  offset="0.8398" style="stop-color:#3E4151"/>
	<stop  offset="1" style="stop-color:#4E5266"/>
</linearGradient>
<path class="st8" d="M83.1,110.7c0,0,0-4.8,0-7.3c0-2.6,0.3-11.2,7.5-12c1-0.1,3-0.2,3-0.2H72.5c-4.2,0-7.9,5.4-7.9,9.5v47.3
	l18.4,12.8C83.1,160.7,83.1,112.5,83.1,110.7z"/>
</svg>
